<?xml version="1.0" encoding="utf-8"?>
<svg width="1036px" height="387px" viewBox="0 0 1036 387" version="1.1" xmlns:xlink="http://www.w3.org/1999/xlink" xmlns="http://www.w3.org/2000/svg">
  <defs>
    <filter filterUnits="userSpaceOnUse" color-interpolation-filters="sRGB" id="filter_1">
      <feFlood flood-opacity="0" result="BackgroundImageFix" />
      <feColorMatrix in="SourceAlpha" type="matrix" values="0 0 0 0 0 0 0 0 0 0 0 0 0 0 0 0 0 0 127 0" />
      <feOffset dx="6" dy="6" />
      <feGaussianBlur stdDeviation="6" />
      <feColorMatrix type="matrix" values="0 0 0 0 0.39215687 0 0 0 0 0.39215687 0 0 0 0 0.39215687 0 0 0 0.49803922 0" />
      <feBlend mode="normal" in2="BackgroundImageFix" result="effect0_dropShadow" />
      <feBlend mode="normal" in="SourceGraphic" in2="effect0_dropShadow" result="shape" />
    </filter>
  </defs>
  <path d="M140 110L60 0L0 0L0 270L60 270L60 80L140 200L220 80L220 270L280 270L280 0L220 0L140 110Z" transform="translate(12 53)" id="Line-12" fill="#5EC576" fill-rule="evenodd" stroke="none" filter="url(#filter_1)" />
  <path d="M0 0L20 0L120 150L220 0L240 4.37722e-07L240 50L120 230L0 50L0 0Z" transform="translate(32 93)" id="Line-2" fill="#FFCB03" fill-rule="evenodd" stroke="none" filter="url(#filter_1)" />
  <g fill="#FFCB03" stroke="none" id="MICHAL" filter="url(#filter_1)" transform="translate(304 12)">
    <path d="M331.307 87.5454L297.259 87.5454Q296.534 79.0938 291.131 73.902Q285.728 68.7102 276.009 68.7102Q263.331 68.7102 256.63 77.7958Q249.929 86.8814 249.929 103Q249.929 120.024 256.721 128.657Q263.512 137.29 275.767 137.29Q285.004 137.29 290.497 132.672Q295.991 128.053 297.259 120.145L331.307 120.386Q330.703 128.234 326.9 136.354Q323.097 144.474 316.124 151.326Q309.151 158.178 298.888 162.343Q288.626 166.509 275.043 166.509Q258.018 166.509 244.526 159.204Q231.033 151.899 223.216 137.712Q215.398 123.526 215.398 103Q215.398 82.3537 223.366 68.1971Q231.335 54.0405 244.858 46.766Q258.381 39.4915 275.043 39.4915Q290.618 39.4915 302.843 45.1058Q315.067 50.7202 322.523 61.4659Q329.979 72.2117 331.307 87.5454ZM49.7443 41.1818L7.96875 41.1818L7.96875 164.818L40.8097 164.818L40.8097 92.8579L41.7756 92.8579L69.304 163.852L89.1051 163.852L116.634 93.3409L117.599 93.3409L117.599 164.818L150.44 164.818L150.44 41.1818L108.665 41.1818L79.929 111.21L78.4801 111.21L49.7443 41.1818ZM199.943 164.818L199.943 41.1818L166.378 41.1818L166.378 164.818L199.943 164.818ZM380.085 41.1818L346.52 41.1818L346.52 164.818L380.085 164.818L380.085 116.523L424.517 116.523L424.517 164.818L458.082 164.818L458.082 41.1818L424.517 41.1818L424.517 89.4773L380.085 89.4773L380.085 41.1818ZM506.136 164.818L469.915 164.818L510.724 41.1818L556.605 41.1818L597.415 164.818L561.193 164.818L554.07 141.153L513.26 141.153L506.136 164.818ZM642.813 41.1818L609.247 41.1818L609.247 164.818L692.798 164.818L692.798 137.773L642.813 137.773L642.813 41.1818ZM520.867 116.04L546.463 116.04L534.148 75.2301L533.182 75.2301L520.867 116.04Z" />
  </g>
  <g fill="#5EC576" stroke="none" id="VIRBA" filter="url(#filter_1)" transform="translate(308.9999 157)">
    <path d="M41.7756 41.1818L67.1307 128.355L68.0966 128.355L93.4517 41.1818L131.364 41.1818L90.554 164.818L44.6733 164.818L3.86364 41.1818L41.7756 41.1818ZM176.761 41.1818L176.761 164.818L143.196 164.818L143.196 41.1818L176.761 41.1818ZM192.699 41.1818L192.699 164.818L226.264 164.818L226.264 124.009L237.855 124.009L259.588 164.818L296.051 164.818L270.938 118.696Q280.778 113.927 286.362 104.992Q291.946 96.0575 291.946 83.1989Q291.946 70.0384 286.211 60.6207Q280.476 51.2031 270.153 46.1925Q259.83 41.1818 246.065 41.1818L192.699 41.1818ZM306.193 164.818L306.193 41.1818L359.801 41.1818Q380.991 41.1818 392.008 49.5732Q403.026 57.9645 403.026 72.0909Q403.026 82.2933 396.445 89.6584Q389.865 97.0234 379.119 99.1364L379.119 100.344Q387.088 100.646 393.608 104.358Q400.128 108.071 403.991 114.561Q407.855 121.05 407.855 129.804Q407.855 139.946 402.573 147.854Q397.29 155.763 387.571 160.29Q377.852 164.818 364.389 164.818L306.193 164.818ZM415.582 164.818L451.804 164.818L458.928 141.153L499.737 141.153L506.861 164.818L543.082 164.818L502.273 41.1818L456.392 41.1818L415.582 164.818ZM339.759 91.1676L353.523 91.1676Q360.163 91.1676 364.329 88.0888Q368.494 85.0099 368.494 79.3352Q368.494 73.6001 364.389 70.5515Q360.284 67.5028 354.006 67.5028L339.759 67.5028L339.759 91.1676ZM238.097 97.929L226.264 97.929L226.264 67.9858L238.097 67.9858Q246.911 67.9858 251.921 71.6079Q256.932 75.2301 256.932 83.1989Q256.932 91.1072 251.921 94.5181Q246.911 97.929 238.097 97.929ZM492.131 116.04L466.534 116.04L478.849 75.2301L479.815 75.2301L492.131 116.04ZM339.759 138.014L355.455 138.014Q366.347 138.014 370.22 132.8Q372.358 129.923 372.358 125.457Q372.358 118.938 367.981 115.436Q363.604 111.935 355.938 111.935L339.759 111.935L339.759 138.014Z" />
  </g>
</svg>